<?xml version="1.0" standalone="no"?>
<!DOCTYPE svg PUBLIC "-//W3C//DTD SVG 20010904//EN"
 "http://www.w3.org/TR/2001/REC-SVG-20010904/DTD/svg10.dtd">
<svg version="1.0" xmlns="http://www.w3.org/2000/svg"
 width="512.000000pt" height="512.000000pt" viewBox="0 0 512.000000 512.000000"
 preserveAspectRatio="xMidYMid meet">
<metadata>
Created by potrace 1.16, written by Peter Selinger 2001-2019
</metadata>
<g transform="translate(0.000000,512.000000) scale(0.100000,-0.100000)"
fill="#000000" stroke="none">
<path d="M2320 4754 c-452 -56 -848 -224 -1180 -499 -107 -89 -273 -264 -356
-375 -229 -307 -373 -663 -425 -1050 -19 -139 -17 -450 5 -590 123 -817 661
-1480 1430 -1765 123 -45 297 -89 446 -112 158 -24 472 -24 630 0 486 74 908
286 1249 627 348 349 564 792 632 1300 17 126 14 434 -6 565 -57 388 -193 718
-423 1029 -97 131 -308 340 -445 443 -272 202 -599 344 -937 405 -91 16 -164
21 -350 23 -129 2 -251 1 -270 -1z m385 -315 c583 -50 1109 -361 1428 -844 33
-49 88 -148 123 -219 277 -566 251 -1234 -69 -1778 -340 -578 -966 -938 -1632
-938 -718 0 -1388 419 -1700 1065 -258 534 -256 1145 5 1668 319 636 955 1037
1675 1056 28 0 104 -4 170 -10z"/>
<path d="M3565 3800 c-23 -6 -1727 -818 -2100 -1001 -88 -43 -115 -80 -115
-157 0 -63 26 -114 68 -136 15 -8 207 -86 427 -175 l400 -162 236 -412 c212
-372 239 -414 275 -434 69 -40 162 -23 206 37 10 14 194 525 408 1135 280 796
390 1122 390 1153 0 74 -43 131 -115 151 -22 6 -42 10 -45 10 -3 -1 -18 -5
-35 -9z m-502 -1214 c-142 -405 -260 -736 -263 -736 -3 1 -72 120 -155 265
-82 146 -163 278 -180 294 -21 20 -109 61 -285 132 -140 56 -259 105 -263 109
-4 4 308 158 695 343 386 185 704 334 706 333 2 -2 -113 -335 -255 -740z"/>
</g>
</svg>
